<svg xmlns="http://www.w3.org/2000/svg" xmlns:xlink="http://www.w3.org/1999/xlink" width="258" height="258" viewBox="0 0 258 258">
  <defs>
    <filter id="사각형_239" x="0" y="0" width="258" height="258" filterUnits="userSpaceOnUse">
      <feOffset dx="8" dy="8" input="SourceAlpha"/>
      <feGaussianBlur result="blur"/>
      <feFlood/>
      <feComposite operator="in" in2="blur"/>
      <feComposite in="SourceGraphic"/>
    </filter>
  </defs>
  <g id="그룹_112793" data-name="그룹 112793" transform="translate(-8218 9250)">
    <g transform="matrix(1, 0, 0, 1, 8218, -9250)" filter="url(#사각형_239)">
      <g id="사각형_239-2" data-name="사각형 239" fill="#fff" stroke="#000" stroke-width="10">
        <rect width="250" height="250" rx="125" stroke="none"/>
        <rect x="5" y="5" width="240" height="240" rx="120" fill="none"/>
      </g>
    </g>
    <g id="그룹_792" data-name="그룹 792" transform="matrix(0.454, 0.891, -0.891, 0.454, 8425.963, -9095.137)">
      <g id="그룹_94" data-name="그룹 94" transform="translate(14.305 38.07)">
        <path id="패스_225" data-name="패스 225" d="M5.444.45q9.851,4.991,19.615,10.117a3.657,3.657,0,0,1,1.3,4.962,3.711,3.711,0,0,1-4.952,1.3Q11.639,11.69,1.788,6.708a3.645,3.645,0,0,1-1.3-4.952A3.714,3.714,0,0,1,5.444.45Z" transform="translate(0 0)"/>
      </g>
      <g id="그룹_95" data-name="그룹 95" transform="translate(7.148 19.031)">
        <path id="패스_226" data-name="패스 226" d="M5.444.455q9.851,4.991,19.615,10.117a3.637,3.637,0,0,1,1.3,4.952A3.7,3.7,0,0,1,21.4,16.83Q11.638,11.694,1.8,6.713A3.64,3.64,0,0,1,.491,1.76,3.707,3.707,0,0,1,5.444.455Z" transform="translate(0 0)"/>
      </g>
      <g id="그룹_96" data-name="그룹 96" transform="translate(0 0)">
        <path id="패스_227" data-name="패스 227" d="M5.444.45Q15.28,5.442,25.049,10.567a3.651,3.651,0,0,1,1.306,4.952,3.716,3.716,0,0,1-4.962,1.306Q11.629,11.69,1.788,6.708a3.645,3.645,0,0,1-1.3-4.952A3.714,3.714,0,0,1,5.444.45Z" transform="translate(0 0)"/>
      </g>
    </g>
    <line id="선_19" data-name="선 19" y2="75" transform="translate(8343.5 -9183.75)" fill="none" stroke="#000" stroke-linecap="round" stroke-width="20"/>
    <circle id="타원_53" data-name="타원 53" cx="11" cy="11" r="11" transform="translate(8332 -9083.25)"/>
  </g>
</svg>
