<svg xmlns="http://www.w3.org/2000/svg" width="23.284" height="22" viewBox="0 0 23.284 22">
  <g id="그룹_112784" data-name="그룹 112784" transform="translate(-363.368 -291.831)">
    <g id="그룹_45" data-name="그룹 45" transform="translate(363.368 293.528)">
      <path id="패스_125" data-name="패스 125" d="M383.218,309.381v4.036a3.645,3.645,0,0,1-3.645,3.645H367.013a3.645,3.645,0,0,1-3.645-3.645h0v-12.9a3.645,3.645,0,0,1,3.645-3.645h5.9l-.009,1.682h-5.888a1.963,1.963,0,0,0-1.962,1.962h0v12.9a1.964,1.964,0,0,0,1.962,1.962h12.561a1.962,1.962,0,0,0,1.963-1.962h0v-4.006Z" transform="translate(-363.368 -296.875)" fill="#040405"/>
    </g>
    <g id="그룹_704" data-name="그룹 704" transform="translate(377.994 291.831)">
      <rect id="사각형_204" data-name="사각형 204" width="1.678" height="9.579" rx="0.839" transform="translate(3.557 0.376)" fill="#040405"/>
      <rect id="사각형_205" data-name="사각형 205" width="1.678" height="6.083" rx="0.839" transform="translate(3.17 1.187) rotate(-45)" fill="#040405"/>
      <rect id="사각형_206" data-name="사각형 206" width="1.678" height="6.083" rx="0.839" transform="translate(1.187 5.516) rotate(-135)" fill="#040405"/>
    </g>
    <rect id="사각형_207" data-name="사각형 207" width="1.678" height="14.888" rx="0.839" transform="translate(368.798 303.303) rotate(-45)" fill="#040405"/>
    <rect id="사각형_208" data-name="사각형 208" width="1.678" height="9.335" rx="0.839" transform="translate(364.577 309.909) rotate(-135)" fill="#040405"/>
    <rect id="사각형_209" data-name="사각형 209" width="1.678" height="8.769" rx="0.839" transform="translate(375.775 304.837) rotate(-45)" fill="#040405"/>
    <rect id="사각형_210" data-name="사각형 210" width="1.678" height="5.183" rx="0.839" transform="translate(374.45 308.465) rotate(-135)" fill="#040405"/>
    <circle id="타원_36" data-name="타원 36" cx="0.842" cy="0.842" r="0.842" transform="translate(372.046 293.527)" fill="#040405"/>
    <circle id="타원_37" data-name="타원 37" cx="0.842" cy="0.842" r="0.842" transform="translate(381.534 305.183)" fill="#040405"/>
  </g>
</svg>
